<svg xmlns="http://www.w3.org/2000/svg" viewbox="0 0 483 483" width="512" height="512">
	<g fill="#FFF">
		<path d="M467.006 177.92c-.055-1.573-.469-3.321-1.233-4.755L407.006 62.877V10.5c0-5.799-4.701-10.5-10.5-10.5h-310c-5.799 0-10.5 4.701-10.5 10.5v52.375L17.228 173.164a10.476 10.476 0 0 0-1.22 4.938h-.014V472.5c0 5.799 4.701 10.5 10.5 10.5h430.012c5.799 0 10.5-4.701 10.5-10.5V177.92zM282.379 76l18.007 91.602H182.583L200.445 76h81.934zm19.391 112.602c-4.964 29.003-30.096 51.143-60.281 51.143-30.173 0-55.295-22.139-60.258-51.143H301.77zm143.331 0c-4.96 29.003-30.075 51.143-60.237 51.143-30.185 0-55.317-22.139-60.281-51.143h120.518zm-123.314-21L303.78 76h86.423l48.81 91.602H321.787zM97.006 55V21h289v34h-289zm-4.198 21h86.243l-17.863 91.602h-117.2L92.808 76zm65.582 112.602c-5.028 28.475-30.113 50.19-60.229 50.19s-55.201-21.715-60.23-50.19H158.39zM300 462H183V306h117v156zm21 0V295.5c0-5.799-4.701-10.5-10.5-10.5h-138c-5.799 0-10.5 4.701-10.5 10.5V462H36.994V232.743a82.558 82.558 0 0 0 3.101 3.255c15.485 15.344 36.106 23.794 58.065 23.794s42.58-8.45 58.065-23.794a81.625 81.625 0 0 0 13.525-17.672c14.067 25.281 40.944 42.418 71.737 42.418 30.752 0 57.597-17.081 71.688-42.294 14.091 25.213 40.936 42.294 71.688 42.294 24.262 0 46.092-10.645 61.143-27.528V462H321z" />
		<path d="M202.494 386h22c5.799 0 10.5-4.701 10.5-10.5s-4.701-10.5-10.5-10.5h-22c-5.799 0-10.5 4.701-10.5 10.5s4.701 10.5 10.5 10.5z" />
	</g>
</svg>